<svg version="1.1" id="Layer_1" xmlns="http://www.w3.org/2000/svg" xmlns:xlink="http://www.w3.org/1999/xlink" x="0px" y="0px"
	 width="100%" viewBox="0 0 440 366" enable-background="new 0 0 440 366" xml:space="preserve">
<path fill="#22B14C" opacity="1.000000" stroke="none" 
	d="
M271.000000,367.000000 
	C180.694519,367.000000 90.889053,367.000000 1.041789,367.000000 
	C1.041789,245.065704 1.041789,123.131393 1.041789,1.098542 
	C147.555435,1.098542 294.110962,1.098542 440.833252,1.098542 
	C440.833252,122.999817 440.833252,244.999893 440.833252,367.000000 
	C384.464813,367.000000 327.982391,367.000000 271.000000,367.000000 
M427.001617,218.500000 
	C427.001617,150.087555 427.001617,81.675125 427.001617,13.307017 
	C288.949341,13.307017 151.695068,13.307017 14.396864,13.307017 
	C14.396864,126.324615 14.396864,239.030609 14.396864,351.693420 
	C152.052109,351.693420 289.306610,351.693420 427.001343,351.693420 
	C427.001343,307.423096 427.001343,263.461548 427.001617,218.500000 
z"/>
<path fill="#030305" opacity="1.000000" stroke="none" 
	d="
M427.001465,219.000000 
	C427.001343,263.461548 427.001343,307.423096 427.001343,351.693420 
	C289.306610,351.693420 152.052109,351.693420 14.396864,351.693420 
	C14.396864,239.030609 14.396864,126.324615 14.396864,13.307017 
	C151.695068,13.307017 288.949341,13.307017 427.001617,13.307017 
	C427.001617,81.675125 427.001617,150.087555 427.001465,219.000000 
M50.362961,134.057297 
	C50.135521,134.334198 49.908081,134.611099 49.035553,135.197189 
	C48.004040,138.219711 46.126110,141.228394 46.076405,144.266968 
	C45.714912,166.364899 45.513260,188.471649 45.807930,210.568314 
	C45.859703,214.450409 48.479115,218.298294 50.288986,222.866089 
	C52.024986,223.237717 53.754322,223.891266 55.498138,223.932495 
	C63.309593,224.117203 71.125175,224.127563 78.957642,224.060883 
	C78.957642,224.060883 78.816490,224.062943 79.024918,224.590729 
	C79.335587,224.794434 79.646255,224.998138 80.320198,225.950226 
	C80.548531,227.524414 80.971024,229.098099 80.975243,230.672882 
	C81.018753,246.913086 80.787445,263.158295 81.164444,279.389740 
	C81.239731,282.631500 83.565117,285.821014 85.205742,289.788422 
	C86.378090,290.189606 87.547295,290.927948 88.723289,290.938934 
	C98.608932,291.031342 108.496185,291.029846 118.381859,290.938629 
	C119.582077,290.927551 120.775833,290.217010 122.669189,289.613831 
	C123.784431,286.003418 125.773804,282.414398 125.862694,278.778900 
	C126.235580,263.529236 125.900604,248.263168 126.173737,233.009354 
	C126.225769,230.103622 127.857613,227.226181 129.720703,224.062668 
	C137.260956,224.038376 144.810669,224.213577 152.335220,223.857483 
	C154.359726,223.761673 156.307770,222.050583 158.853973,220.722260 
	C159.821808,218.803635 160.789658,216.884995 162.003845,214.060944 
	C161.925735,190.054306 161.847626,166.047668 161.630264,141.395676 
	C160.401505,139.594101 159.172729,137.792526 158.065567,135.190018 
	C156.028915,134.507492 154.013779,133.319687 151.951797,133.231873 
	C143.995453,132.893036 136.024155,132.905563 127.706413,132.096451 
	C127.155876,128.742737 126.173843,125.394676 126.129898,122.034332 
	C125.944778,107.880791 126.008850,93.723495 126.050285,79.567772 
	C126.063171,75.164719 125.187469,71.158478 121.705414,67.201653 
	C119.837509,66.801094 117.974174,66.081261 116.100929,66.054512 
	C107.371880,65.929863 98.639740,65.957771 89.909660,66.036461 
	C88.572655,66.048508 87.240616,66.611069 85.275978,67.238426 
	C81.757065,71.122505 80.847855,75.673317 80.928467,80.861473 
	C81.166534,96.183723 81.084877,111.512901 80.919441,126.837120 
	C80.897057,128.910400 79.679138,130.970764 78.079811,132.931442 
	C72.676216,132.960266 67.269463,132.886780 61.870129,133.053497 
	C58.210300,133.166489 54.560898,133.616913 50.362961,134.057297 
M219.011658,105.396194 
	C218.633179,102.137726 218.721909,98.735687 217.774353,95.652092 
	C216.052368,90.048347 213.174500,84.731606 206.605057,84.132553 
	C200.042343,83.534119 193.382477,84.001236 186.769501,84.001236 
	C186.769501,111.200233 186.769501,138.013535 186.769501,165.009293 
	C193.324371,165.009293 199.483902,165.217575 205.621475,164.940063 
	C210.120270,164.736633 213.631973,163.351364 216.325562,158.659988 
	C220.043503,152.184601 219.989212,145.580353 220.020493,138.719543 
	C220.051056,132.014053 217.750122,126.439537 212.076324,122.387550 
	C217.626785,118.310997 217.825500,112.096924 219.011658,105.396194 
M254.001999,95.516899 
	C254.001999,101.942291 254.001999,108.367691 254.001999,114.696060 
	C247.687653,114.696060 241.956085,114.696060 235.837097,114.696060 
	C235.837097,104.327698 235.837097,94.256172 235.837097,84.283409 
	C232.697083,84.283409 229.958542,84.283409 227.255020,84.283409 
	C227.255020,111.287704 227.255020,138.007950 227.255020,164.744568 
	C230.252563,164.744568 232.987534,164.744568 236.169861,164.744568 
	C236.169861,153.112381 236.169861,141.725067 236.169861,130.410431 
	C242.362473,130.410431 248.094131,130.410431 254.232178,130.410431 
	C254.232178,142.095917 254.232178,153.497787 254.232178,164.667160 
	C257.392487,164.667160 260.131287,164.667160 262.704651,164.667160 
	C262.704651,137.615784 262.704651,110.894806 262.704651,84.297592 
	C259.665497,84.297592 256.927979,84.297592 254.001770,84.297592 
	C254.001770,87.903648 254.001770,91.213501 254.001999,95.516899 
M292.264282,82.995316 
	C289.627960,82.995316 286.991669,82.995316 284.378021,82.995316 
	C279.175018,110.430038 274.036652,137.523849 268.865234,164.791946 
	C272.512543,164.791946 275.615173,164.791946 278.561188,164.791946 
	C279.408844,160.073761 279.994568,155.530365 281.163544,151.142380 
	C281.485260,149.934769 283.486877,148.483749 284.824768,148.366470 
	C288.946747,148.005096 293.120544,148.234695 297.755585,148.234695 
	C299.018921,153.886246 300.266266,159.466125 301.462067,164.815628 
	C304.845490,164.815628 307.817963,164.815628 311.230988,164.815628 
	C308.789093,152.944839 306.267029,141.358948 304.045624,129.715683 
	C301.235779,114.988144 298.713623,100.205711 295.901825,85.478577 
	C295.717560,84.513443 294.124420,83.817299 292.264282,82.995316 
M194.015686,208.471085 
	C196.185379,218.094650 198.355072,227.718201 200.538132,237.401001 
	C202.731903,237.401001 204.671967,237.401001 206.466461,237.401001 
	C208.815735,226.261658 211.110504,215.380753 213.405273,204.499847 
	C213.599686,204.527664 213.794083,204.555481 213.988495,204.583298 
	C213.988495,217.998230 213.988495,231.413162 213.988495,244.674866 
	C216.344254,244.674866 218.421494,244.674866 220.438049,244.674866 
	C220.438049,223.939667 220.438049,203.544327 220.438049,183.199570 
	C217.183380,183.199570 214.228668,183.199570 211.532272,183.199570 
	C208.886093,195.825638 206.292496,208.200821 203.489990,221.572754 
	C200.652252,208.122467 198.016876,195.631302 195.396332,183.210388 
	C192.232971,183.210388 189.299393,183.210388 186.219803,183.210388 
	C186.219803,203.833694 186.219803,224.235825 186.219803,244.809998 
	C188.504349,244.809998 190.571838,244.809998 193.006149,244.809998 
	C193.006149,233.155838 192.996033,221.701797 193.020615,210.247803 
	C193.023285,208.997299 193.225845,207.747223 193.335678,206.496948 
	C193.541336,206.711151 193.775131,206.906097 193.940674,207.147751 
	C194.021988,207.266434 193.976837,207.471771 194.015686,208.471085 
M253.997589,228.498398 
	C253.997589,233.923340 253.997589,239.348282 253.997589,245.006226 
	C256.668274,245.006226 258.805756,245.006851 260.943237,245.006134 
	C271.130676,245.002701 275.794891,241.253128 279.178131,231.458984 
	C283.551575,218.798187 282.680115,206.239334 278.789795,193.829559 
	C277.227325,188.845551 273.593506,184.417526 268.314392,183.260132 
	C263.789032,182.267990 258.873688,183.054672 253.997803,183.054672 
	C253.997803,198.264053 253.997803,212.881424 253.997589,228.498398 
M320.994263,158.424683 
	C320.994263,160.532425 320.994263,162.640182 320.994263,164.787262 
	C324.263916,164.787262 327.015656,164.787262 330.151154,164.787262 
	C330.151154,142.675690 330.151154,120.777679 330.151154,98.462875 
	C334.299164,98.462875 338.057587,98.462875 341.743439,98.462875 
	C341.743439,93.443321 341.743439,88.849770 341.743439,84.243439 
	C330.746552,84.243439 320.012695,84.243439 309.237915,84.243439 
	C309.237915,89.078056 309.237915,93.655937 309.237915,98.646980 
	C313.203979,98.646980 316.945740,98.646980 320.993958,98.646980 
	C320.993958,118.522049 320.993958,137.980515 320.994263,158.424683 
M355.994843,198.270584 
	C355.253143,193.295135 354.511444,188.319687 353.718384,182.999695 
	C352.536072,182.999695 351.569366,183.027359 350.604706,182.994797 
	C346.899017,182.869781 343.683624,182.222015 343.660309,188.237854 
	C343.637482,194.126633 341.517975,200.000946 340.377960,205.893051 
	C337.884460,218.780853 335.428528,231.675934 332.932526,244.696991 
	C335.797150,244.696991 338.358673,244.696991 340.660645,244.696991 
	C341.271637,240.351761 341.835449,236.342010 342.402924,232.306427 
	C347.142273,232.306427 351.538177,232.306427 355.905273,232.306427 
	C356.975464,247.361938 357.788666,245.689728 365.334930,244.408249 
	C364.221802,239.006592 363.109680,233.617447 362.000854,228.227631 
	C360.006866,218.535233 358.014862,208.842422 355.994843,198.270584 
M317.859833,232.800369 
	C313.218536,234.290359 310.504608,232.021759 309.120850,227.937607 
	C308.197266,225.211746 307.587311,222.316025 307.301666,219.450012 
	C306.563293,212.040955 306.714996,204.599548 310.083069,197.804626 
	C310.955688,196.044174 313.938660,194.007080 315.594299,194.278687 
	C317.872711,194.652481 320.253845,196.768021 321.755280,198.765503 
	C322.971588,200.383591 322.954529,202.928711 323.425659,204.825653 
	C326.150726,204.825653 328.453583,204.825653 331.679932,204.825653 
	C330.039978,199.990250 328.599701,195.574554 327.044067,191.199890 
	C325.134094,185.828720 320.041016,181.984116 315.168762,182.112259 
	C310.543488,182.233902 304.589905,187.734741 302.926208,192.430344 
	C299.822449,201.190613 299.561157,210.156479 299.994537,219.248703 
	C300.380981,227.356201 301.950592,234.964325 307.510437,241.421661 
	C311.379974,245.915817 318.780090,246.603424 323.083038,242.472137 
	C328.560303,237.213409 329.515320,230.241287 331.024170,223.158112 
	C328.205048,223.158112 325.749725,223.158112 324.499359,223.158112 
	C322.206329,226.637833 320.346497,229.460159 317.859833,232.800369 
M415.001099,188.522827 
	C415.001099,186.758057 415.001099,184.993286 415.001099,183.273285 
	C407.708466,183.273285 400.974030,183.273285 394.255249,183.273285 
	C394.255249,203.942444 394.255249,224.334396 394.255249,244.749176 
	C401.250336,244.749176 407.986023,244.749176 414.760193,244.749176 
	C414.760193,240.561905 414.760193,236.634476 414.760193,232.409958 
	C410.086823,232.409958 405.652740,232.409958 401.120575,232.409958 
	C401.120575,227.855331 401.120575,223.601395 401.120575,218.818848 
	C405.526642,218.818848 409.741760,218.818848 413.635010,218.818848 
	C413.635010,214.876282 413.635010,211.470505 413.635010,207.719467 
	C409.179626,207.719467 405.088562,207.719467 401.240753,207.719467 
	C401.240753,203.284363 401.240753,199.215530 401.240753,194.788895 
	C405.991455,194.788895 410.408752,194.788895 415.001007,194.788895 
	C415.001007,192.769073 415.001007,191.123108 415.001099,188.522827 
M241.475098,208.003876 
	C239.041122,208.003876 236.607147,208.003876 234.296906,208.003876 
	C234.296906,203.330399 234.296906,199.256195 234.296906,194.795197 
	C239.007935,194.795197 243.424026,194.795197 247.690247,194.795197 
	C247.690247,190.649933 247.690247,186.909363 247.690247,183.314117 
	C240.636520,183.314117 233.895187,183.314117 227.318207,183.314117 
	C227.318207,204.034195 227.318207,224.440231 227.318207,244.678894 
	C234.382767,244.678894 241.126083,244.678894 247.659500,244.678894 
	C247.659500,240.455276 247.659500,236.559814 247.659500,232.482254 
	C243.026794,232.482254 238.732758,232.482254 234.310699,232.482254 
	C234.310699,227.910019 234.310699,223.535782 234.310699,218.889282 
	C238.411469,218.889282 242.200226,218.889282 246.032928,218.889282 
	C246.032928,215.208923 246.032928,211.809982 246.032928,208.003983 
	C244.692261,208.003983 243.565704,208.003983 241.475098,208.003876 
M365.721161,183.001694 
	C365.147583,183.595657 364.109650,184.166077 364.078186,184.787521 
	C363.912354,188.061386 364.000488,191.348114 364.000488,194.991714 
	C367.214569,194.991714 369.956940,194.991714 373.035645,194.991714 
	C373.035645,211.788895 373.035645,228.209274 373.035645,244.813217 
	C375.463623,244.813217 377.531799,244.813217 380.133545,244.813217 
	C380.133545,228.088318 380.133545,211.543304 380.133545,194.591400 
	C383.413361,194.591400 386.156769,194.591400 388.776855,194.591400 
	C388.776855,190.557480 388.776855,186.945892 388.776855,182.998672 
	C381.269287,182.998672 373.977020,182.998672 365.721161,183.001694 
M294.031158,235.467148 
	C294.031158,218.072647 294.031158,200.678146 294.031158,183.278091 
	C291.533783,183.278091 289.494110,183.278091 287.506378,183.278091 
	C287.506378,203.950027 287.506378,224.311874 287.506378,244.708344 
	C289.799957,244.708344 291.832794,244.708344 294.030823,244.708344 
	C294.030823,241.741318 294.030823,239.098694 294.031158,235.467148 
M253.033432,297.623657 
	C253.914352,293.878174 254.795273,290.132721 255.676208,286.387268 
	C255.840469,286.378906 256.004730,286.370575 256.169006,286.362213 
	C256.169006,291.837494 256.169006,297.312744 256.169006,302.887756 
	C257.307526,302.887756 258.526764,302.892242 258.526794,302.887115 
	C258.607239,292.708099 258.606934,282.528473 258.606934,272.260071 
	C256.199005,271.564301 255.191742,272.164337 254.834213,275.257202 
	C254.212692,280.633728 252.746826,285.912659 251.634979,291.232513 
	C249.547577,285.639404 248.421539,280.023132 246.926285,274.506958 
	C246.617493,273.367859 244.933914,272.601379 243.255692,271.101715 
	C243.255692,282.777161 243.255692,292.851868 243.255692,302.926575 
	C243.844162,303.004761 244.432617,303.082977 245.021088,303.161194 
	C246.724640,297.820404 244.893951,291.901947 246.303116,286.425476 
	C247.470779,290.140869 248.116013,293.945892 249.232849,297.607086 
	C249.747284,299.293488 250.838165,302.280701 253.033432,297.623657 
M379.977692,301.604675 
	C378.663513,297.973724 377.349304,294.342804 376.042755,290.733032 
	C380.181610,287.136902 381.145996,281.711273 379.087646,276.641663 
	C376.885376,271.217621 372.752014,271.884369 368.130981,272.407166 
	C368.130981,281.980133 368.086151,291.273773 368.200897,300.565491 
	C368.212219,301.485199 369.198578,302.392914 369.732391,303.306183 
	C370.168396,303.148926 370.604401,302.991669 371.040405,302.834412 
	C371.040405,298.930725 371.040405,295.027039 371.040405,291.123352 
	C371.889160,290.439453 372.737885,289.755554 373.586639,289.071625 
	C373.717072,290.228546 373.735901,291.411682 374.000214,292.537170 
	C374.631409,295.224945 375.094269,298.014252 376.217560,300.494202 
	C376.670929,301.495178 378.671265,301.795502 379.977692,301.604675 
M386.141174,272.368134 
	C386.141174,282.473358 386.141174,292.578583 386.141174,302.793427 
	C389.266357,302.793427 392.528595,302.793427 396.083557,302.793427 
	C395.935791,301.156372 395.810577,299.769135 395.663971,298.144836 
	C393.018036,298.144836 390.720734,298.144836 388.453156,298.144836 
	C388.453156,295.311859 388.453156,292.767548 388.453156,289.963257 
	C390.702484,289.963257 392.653656,289.963257 394.674438,289.963257 
	C394.674438,288.160370 394.674438,286.640717 394.674438,285.125641 
	C392.390869,285.000916 390.446289,284.894714 388.474182,284.787018 
	C388.474182,282.135254 388.474182,279.716339 388.474182,276.972504 
	C390.935486,276.972504 393.221771,276.972504 395.670471,276.972504 
	C395.670471,275.258331 395.670471,273.878448 395.670471,272.118561 
	C392.600464,272.118561 389.798859,272.118561 386.141174,272.368134 
M352.363861,303.220184 
	C357.073395,305.549805 360.303375,301.875580 360.682098,298.949799 
	C361.617798,291.721436 361.354279,284.256012 360.710297,276.962067 
	C360.547852,275.122101 357.364838,272.821869 355.147339,272.169495 
	C353.865540,271.792419 351.229462,273.923828 350.081787,275.547516 
	C345.047363,282.670044 345.869781,294.676056 352.363861,303.220184 
M205.985504,293.458771 
	C205.987961,295.791382 205.863983,298.134521 206.057449,300.451172 
	C206.130920,301.330750 206.934967,302.149353 207.406006,302.995728 
	C207.927032,302.198059 208.857422,301.420502 208.897812,300.599213 
	C209.066879,297.160004 208.969101,293.707672 208.969101,290.327148 
	C211.859741,290.327148 214.253174,290.327148 216.967621,290.327148 
	C216.967621,294.691650 216.967621,298.753662 216.967621,302.961121 
	C219.592545,301.608887 220.367081,277.803802 217.407928,272.060547 
	C217.407928,276.223114 217.407928,280.385651 217.407928,284.763641 
	C214.117615,284.763641 211.717316,284.763641 209.330292,284.763641 
	C208.223175,272.785889 208.223175,272.785889 205.985947,272.500793 
	C205.985947,279.179626 205.985947,285.825317 205.985504,293.458771 
M235.995544,299.753387 
	C233.859940,299.039459 231.724335,298.325500 229.219818,297.488220 
	C229.219818,295.515533 229.219818,292.932587 229.219818,290.024353 
	C231.178680,290.024353 232.947220,290.024353 235.148148,290.024353 
	C235.057358,288.174805 234.983307,286.666229 234.906876,285.109253 
	C232.779800,285.007507 231.018982,284.923279 229.256836,284.838959 
	C229.256836,282.079071 229.256836,279.669708 229.256836,277.134705 
	C231.583969,277.032959 233.674988,276.941559 235.736465,276.851410 
	C235.736465,275.130524 235.736465,273.737915 235.736465,272.348724 
	C232.387329,272.348724 229.317184,272.348724 226.251526,272.348724 
	C226.251526,282.652985 226.251526,292.711578 226.251526,303.005707 
	C228.986893,303.005707 231.479034,303.190063 233.914169,302.898407 
	C234.690247,302.805481 235.314926,301.448334 235.995544,299.753387 
M286.005524,279.368652 
	C285.739716,278.272186 285.793243,276.905243 285.141510,276.135620 
	C283.790863,274.540680 281.729736,271.879120 280.568298,272.160858 
	C278.535065,272.654053 276.355804,274.717346 275.320007,276.690857 
	C273.267120,280.602264 275.459381,286.762207 279.007233,289.435822 
	C280.512573,290.570190 282.376862,291.914154 282.854858,293.525696 
	C283.299500,295.024719 282.118530,297.005920 281.653229,298.774841 
	C280.384338,297.968597 279.109100,297.172089 277.848938,296.352417 
	C277.095367,295.862213 276.365448,295.335693 274.997589,294.393372 
	C274.997589,296.186127 274.578949,297.542633 275.077515,298.273529 
	C276.470917,300.316193 277.946381,302.719055 280.001251,303.706451 
	C280.930817,304.153076 283.814301,301.931702 284.932465,300.313446 
	C287.777466,296.196075 285.829742,289.014679 281.668915,285.537872 
	C280.152466,284.270721 278.634308,282.443787 278.214020,280.619476 
	C277.922028,279.352295 279.503662,277.653412 280.248199,276.147400 
	C281.212402,277.025421 282.110382,277.995453 283.161774,278.752350 
	C284.003906,279.358551 285.032471,279.705902 286.005524,279.368652 
M320.406647,277.018616 
	C321.599548,277.391083 322.997803,277.496674 323.927094,278.211761 
	C324.840454,278.914581 325.277649,280.236206 325.923828,281.286255 
	C326.381134,281.082489 326.838440,280.878723 327.295746,280.674957 
	C326.880157,278.854736 326.827881,276.826691 325.940918,275.276093 
	C325.145630,273.885834 323.492279,272.252441 322.106018,272.143402 
	C320.757935,272.037323 318.787750,273.407959 317.925446,274.691101 
	C314.504181,279.782227 315.873383,285.716492 320.733917,289.404877 
	C322.093384,290.436493 323.597504,292.014343 323.865814,293.546448 
	C324.152618,295.184326 323.057404,297.064209 322.565460,298.838470 
	C321.260468,297.981842 319.939850,297.147797 318.657227,296.258881 
	C318.038239,295.829895 317.490814,295.297638 316.396637,294.381531 
	C315.728394,298.949463 316.763885,302.489471 320.528076,303.523651 
	C322.235138,303.992645 325.664642,302.013062 326.726685,300.209991 
	C328.908020,296.506500 326.269073,288.982025 322.895569,285.710327 
	C320.718567,283.599030 317.135895,281.684631 320.406647,277.018616 
M185.986435,288.479004 
	C186.330490,291.878967 186.078857,295.498474 187.223404,298.603363 
	C188.015686,300.752716 190.501266,302.688507 192.699387,303.718262 
	C193.653809,304.165344 196.231216,302.439117 197.278137,301.086121 
	C198.740097,299.196747 199.459167,296.732544 200.496109,294.514313 
	C199.975983,294.187256 199.455856,293.860199 198.935715,293.533142 
	C198.057098,294.512878 197.029190,295.396820 196.327698,296.490204 
	C194.188324,299.824768 192.267334,299.850281 190.171967,296.453918 
	C187.136749,291.534119 188.544403,280.547211 193.309387,275.751251 
	C194.577606,277.425507 195.760666,279.040253 197.007492,280.604126 
	C197.432526,281.137207 197.955887,281.747528 198.553574,281.928375 
	C198.906860,282.035248 199.948196,281.168854 199.909576,281.081696 
	C198.612091,278.154724 197.604736,274.949829 195.618637,272.565582 
	C194.998169,271.820740 191.177277,272.680176 189.725357,273.890045 
	C185.488220,277.420868 186.312897,282.716949 185.986435,288.479004 
M298.012634,300.246277 
	C298.012634,292.630402 298.012634,285.014526 298.012634,277.027802 
	C299.745300,277.027802 301.149933,277.027802 302.949890,277.027802 
	C302.872284,275.262268 302.811859,273.887360 302.744202,272.347107 
	C298.337463,272.347107 294.264130,272.347107 289.951996,272.347107 
	C290.050262,274.007751 290.133606,275.416351 290.217133,276.827362 
	C291.959015,276.972595 293.365662,277.089874 294.870056,277.215302 
	C294.922119,278.181641 294.986450,278.826996 294.987152,279.472443 
	C294.994751,286.451874 294.945038,293.432007 295.053101,300.409760 
	C295.066467,301.275757 295.903381,302.128998 296.358704,302.988129 
	C296.909119,302.391083 297.459534,301.794037 298.012634,300.246277 
M336.068085,284.562439 
	C336.073761,289.726501 336.002716,294.892700 336.146759,300.052917 
	C336.177338,301.149597 336.991821,302.224426 337.445160,303.309357 
	C337.977051,303.166748 338.508972,303.024139 339.040863,302.881531 
	C339.040863,294.302094 339.040863,285.722626 339.040863,277.198975 
	C340.983276,277.031525 342.413788,276.908203 344.080658,276.764496 
	C343.956146,275.064636 343.854309,273.674194 343.764771,272.451569 
	C339.619781,272.451569 335.881775,272.451569 332.143799,272.451569 
	C331.816589,272.877014 331.489349,273.302490 331.162140,273.727936 
	C332.556152,275.238922 333.950134,276.749908 336.067413,279.044891 
	C336.067413,279.616699 336.067413,281.598999 336.068085,284.562439 
M269.005188,281.548035 
	C268.124786,278.437469 270.940216,274.348145 266.001648,271.081604 
	C266.001648,281.788483 265.955750,291.412659 266.093262,301.034271 
	C266.103668,301.763977 267.416351,302.475067 269.005524,304.092102 
	C269.005524,295.824585 269.005524,289.179260 269.005188,281.548035 
z"/>
<path fill="#F48AC5" opacity="1.000000" stroke="none" 
	d="
M157.943970,135.990952 
	C159.172729,137.792526 160.401505,139.594101 161.444122,142.040909 
	C161.174545,166.185608 161.085556,189.685074 161.039291,213.184616 
	C161.038116,213.778061 161.507553,214.372437 161.757492,214.966370 
	C160.789658,216.884995 159.821808,218.803635 158.152161,221.006104 
	C149.707245,221.527374 141.955826,221.628677 134.227066,222.100891 
	C132.366333,222.214569 130.580719,223.557861 128.760559,224.335678 
	C127.857613,227.226181 126.225769,230.103622 126.173737,233.009354 
	C125.900604,248.263168 126.235580,263.529236 125.862694,278.778900 
	C125.773804,282.414398 123.784431,286.003418 122.007416,289.453186 
	C109.181412,289.206543 97.017197,289.120575 84.852974,289.034607 
	C83.565117,285.821014 81.239731,282.631500 81.164444,279.389740 
	C80.787445,263.158295 81.018753,246.913086 80.975243,230.672882 
	C80.971024,229.098099 80.548531,227.524414 80.031693,225.312195 
	C79.434280,224.470428 79.125389,224.266693 78.816490,224.062943 
	C78.816490,224.062943 78.957642,224.060883 78.811356,223.745880 
	C77.661026,222.958069 76.659836,222.082794 75.652504,222.075668 
	C67.073212,222.015030 58.492805,222.112122 49.912731,222.161972 
	C48.479115,218.298294 45.859703,214.450409 45.807930,210.568314 
	C45.513260,188.471649 45.714912,166.364899 46.076405,144.266968 
	C46.126110,141.228394 48.004040,138.219711 49.751129,135.087280 
	C50.993656,135.003708 51.520607,135.030045 52.343056,135.341705 
	C57.070683,135.751129 61.506668,136.047607 65.933800,135.948502 
	C69.959213,135.858368 73.974998,135.338257 78.037659,134.686554 
	C78.132523,134.155853 78.184769,133.946304 78.373596,133.630493 
	C78.717102,133.402039 78.885307,133.239670 79.014793,133.037109 
	C79.679138,130.970764 80.897057,128.910400 80.919441,126.837120 
	C81.084877,111.512901 81.166534,96.183723 80.928467,80.861473 
	C80.847855,75.673317 81.757065,71.122505 85.880768,67.390930 
	C98.283554,67.691864 110.081558,67.840286 121.879555,67.988708 
	C125.187469,71.158478 126.063171,75.164719 126.050285,79.567772 
	C126.008850,93.723495 125.944778,107.880791 126.129898,122.034332 
	C126.173843,125.394676 127.155876,128.742737 127.977112,132.746475 
	C128.866287,133.951065 129.484756,134.505646 130.388718,135.347687 
	C139.437408,135.745285 148.200592,135.855392 157.208832,135.971954 
	C157.453888,135.978409 157.943970,135.990952 157.943970,135.990952 
M102.329498,177.649979 
	C101.853378,180.783371 101.377266,183.916779 100.246407,186.865555 
	C98.589584,185.507050 96.420967,184.447861 95.406616,182.713577 
	C94.163002,180.587326 93.636223,177.914932 93.450241,175.429977 
	C93.421432,175.045059 96.874367,174.429916 98.695808,173.853653 
	C99.122429,173.718689 99.461960,173.308426 100.878967,172.249710 
	C98.808006,170.425079 96.722816,167.265472 95.083496,167.481979 
	C93.083351,167.746124 90.224792,170.676926 89.938866,172.757019 
	C89.418678,176.541367 89.591972,180.993240 91.192924,184.346863 
	C93.043518,188.223419 96.748405,191.214767 99.632973,194.572723 
	C94.740265,199.624237 94.487343,207.595734 98.968781,213.663391 
	C99.265732,214.129501 99.562683,214.595612 99.959373,215.799240 
	C99.597137,217.183868 99.234909,218.568497 98.213409,220.321487 
	C98.119652,221.824005 98.025894,223.326523 97.564514,225.088715 
	C97.314957,225.338684 97.279144,225.616241 97.215256,226.695526 
	C97.378342,227.197906 97.541435,227.700272 97.528702,228.624664 
	C97.700203,229.036041 97.871704,229.447418 97.989769,230.689041 
	C99.357086,234.446350 100.724411,238.203674 102.033554,242.502579 
	C102.081604,242.677673 102.129654,242.852783 101.855980,243.679108 
	C101.622620,244.784973 101.389259,245.890823 101.009666,247.659576 
	C101.055954,248.107178 101.102249,248.554779 101.001831,249.487595 
	C100.994484,249.656403 100.987144,249.825226 100.504402,250.139542 
	C100.691261,250.420715 100.878120,250.701889 101.044785,251.812576 
	C102.176567,257.661407 103.308350,263.510223 104.612526,270.249969 
	C105.004303,265.700897 104.521675,261.803101 105.802055,258.612946 
	C107.841347,253.531876 106.640900,249.425797 104.702202,244.886322 
	C105.513977,243.275101 106.325752,241.663879 107.722496,239.782776 
	C108.417793,238.522614 109.113091,237.262451 109.991623,235.172501 
	C110.180832,234.235336 110.319862,233.284698 110.567558,232.363251 
	C111.973038,227.134796 110.359985,220.731140 106.693245,217.666534 
	C106.375946,217.479355 106.058640,217.292175 106.062943,216.460770 
	C108.296295,212.797104 110.923416,209.308853 112.655006,205.421661 
	C114.477531,201.330338 112.335648,196.407440 108.305717,194.630203 
	C108.050522,194.290924 107.795326,193.951660 107.647186,193.621414 
	C107.647186,193.621414 107.616119,193.724258 108.208191,193.713257 
	C108.458916,193.431442 108.709641,193.149612 109.218376,192.223419 
	C110.334122,191.151566 111.380966,189.994949 112.577454,189.022430 
	C117.961754,184.645950 120.594086,177.071915 117.899529,172.061111 
	C116.814758,170.043884 114.337845,167.225098 112.788887,167.398636 
	C110.837006,167.617325 109.186424,170.525330 107.846931,171.840118 
	C110.626106,173.991882 113.173981,175.110229 114.165939,177.031784 
	C114.831512,178.321106 113.681992,181.009293 112.625572,182.591492 
	C111.634361,184.076035 109.698219,184.929657 107.378075,185.890793 
	C106.640709,182.608887 105.903343,179.326996 105.010033,175.142242 
	C104.987068,172.094498 104.964104,169.046753 105.161636,165.169632 
	C105.130058,163.180450 105.098480,161.191254 105.331451,158.655457 
	C105.252640,157.665192 105.173836,156.674911 105.343948,155.320755 
	C105.453072,155.005066 105.384880,154.733978 105.462837,154.125854 
	C105.608551,153.781372 105.556488,153.470169 105.633705,152.471313 
	C105.603882,151.947525 105.574066,151.423752 105.810539,150.218826 
	C105.801056,149.492828 105.791573,148.766815 105.939850,147.139221 
	C106.589172,143.153488 107.679115,139.176010 107.754143,135.179504 
	C107.818970,131.725952 107.368851,127.951935 105.934326,124.886841 
	C104.923935,122.728012 101.568459,121.495979 101.067184,125.858368 
	C100.632530,129.641068 100.893089,133.525848 101.092384,137.352692 
	C101.275658,140.871765 101.786903,144.373764 102.153656,147.883286 
	C101.522751,147.973801 100.891846,148.064331 100.260933,148.154846 
	C99.798759,146.703568 99.369606,145.240738 98.867035,143.803589 
	C98.013130,141.361755 97.396324,138.778091 96.152893,136.547867 
	C94.899864,134.300430 93.190567,133.161758 90.257187,135.093170 
	C84.934593,138.597717 79.263695,141.573303 73.425812,144.950363 
	C75.626831,153.450211 82.066147,159.962265 88.139771,158.594559 
	C88.256660,159.646210 88.369888,160.664932 88.530647,162.111252 
	C93.122093,160.912476 97.467659,159.777908 101.867737,158.629105 
	C101.963753,160.085266 102.093834,162.057953 102.099480,164.884201 
	C102.344734,168.935349 102.589989,172.986481 102.329498,177.649979 
M132.675461,149.791138 
	C133.250732,147.686188 133.826019,145.581253 134.137314,144.442215 
	C128.296875,141.298035 123.276573,138.512543 118.175972,135.882751 
	C115.432480,134.468262 112.229584,133.213577 110.934273,137.420914 
	C109.316864,142.674454 107.775169,148.057205 107.214157,153.488815 
	C106.897507,156.554550 107.379669,160.892044 112.305550,160.912750 
	C115.819199,160.927536 119.499023,160.872330 122.795219,159.850281 
	C125.153114,159.119171 127.163399,156.898239 129.015793,155.031448 
	C130.314011,153.723129 131.084534,151.891190 132.675461,149.791138 
z"/>
<path fill="#F5F5F5" opacity="1.000000" stroke="none" 
	d="
M219.011169,105.846573 
	C217.825500,112.096924 217.626785,118.310997 212.076324,122.387550 
	C217.750122,126.439537 220.051056,132.014053 220.020493,138.719543 
	C219.989212,145.580353 220.043503,152.184601 216.325562,158.659988 
	C213.631973,163.351364 210.120270,164.736633 205.621475,164.940063 
	C199.483902,165.217575 193.324371,165.009293 186.769501,165.009293 
	C186.769501,138.013535 186.769501,111.200233 186.769501,84.001236 
	C193.382477,84.001236 200.042343,83.534119 206.605057,84.132553 
	C213.174500,84.731606 216.052368,90.048347 217.774353,95.652092 
	C218.721909,98.735687 218.633179,102.137726 219.011169,105.846573 
M210.950668,136.154907 
	C207.818253,129.709137 206.536331,129.212875 196.095352,130.482010 
	C196.095352,137.188782 196.095352,143.912277 196.095352,151.000961 
	C197.973541,151.000961 199.601959,151.000336 201.230377,151.001068 
	C209.038910,151.004654 210.959793,149.038437 210.989990,141.006119 
	C210.994995,139.673828 210.991318,138.341522 210.950668,136.154907 
M197.463654,97.758781 
	C196.933258,98.054779 195.944687,98.343925 195.940125,98.647774 
	C195.849487,104.706406 195.872467,110.766747 195.872467,118.032234 
	C200.194504,116.731049 204.164322,116.549065 206.689224,114.545853 
	C210.804504,111.280869 209.567947,106.295319 208.289536,101.826675 
	C206.738220,96.404121 202.199066,97.935318 197.463654,97.758781 
z"/>
<path fill="#FCFCFC" opacity="1.000000" stroke="none" 
	d="
M254.001892,95.020126 
	C254.001770,91.213501 254.001770,87.903648 254.001770,84.297592 
	C256.927979,84.297592 259.665497,84.297592 262.704651,84.297592 
	C262.704651,110.894806 262.704651,137.615784 262.704651,164.667160 
	C260.131287,164.667160 257.392487,164.667160 254.232178,164.667160 
	C254.232178,153.497787 254.232178,142.095917 254.232178,130.410431 
	C248.094131,130.410431 242.362473,130.410431 236.169861,130.410431 
	C236.169861,141.725067 236.169861,153.112381 236.169861,164.744568 
	C232.987534,164.744568 230.252563,164.744568 227.255020,164.744568 
	C227.255020,138.007950 227.255020,111.287704 227.255020,84.283409 
	C229.958542,84.283409 232.697083,84.283409 235.837097,84.283409 
	C235.837097,94.256172 235.837097,104.327698 235.837097,114.696060 
	C241.956085,114.696060 247.687653,114.696060 254.001999,114.696060 
	C254.001999,108.367691 254.001999,101.942291 254.001892,95.020126 
z"/>
<path fill="#FBFBFB" opacity="1.000000" stroke="none" 
	d="
M292.725464,82.995674 
	C294.124420,83.817299 295.717560,84.513443 295.901825,85.478577 
	C298.713623,100.205711 301.235779,114.988144 304.045624,129.715683 
	C306.267029,141.358948 308.789093,152.944839 311.230988,164.815628 
	C307.817963,164.815628 304.845490,164.815628 301.462067,164.815628 
	C300.266266,159.466125 299.018921,153.886246 297.755585,148.234695 
	C293.120544,148.234695 288.946747,148.005096 284.824768,148.366470 
	C283.486877,148.483749 281.485260,149.934769 281.163544,151.142380 
	C279.994568,155.530365 279.408844,160.073761 278.561188,164.791946 
	C275.615173,164.791946 272.512543,164.791946 268.865234,164.791946 
	C274.036652,137.523849 279.175018,110.430038 284.378021,82.995316 
	C286.991669,82.995316 289.627960,82.995316 292.725464,82.995674 
M291.023682,109.512428 
	C290.687805,108.130608 290.351898,106.748787 290.016022,105.366974 
	C289.799133,105.430992 289.582275,105.495010 289.365387,105.559029 
	C287.704956,114.954620 286.044525,124.350220 284.362885,133.865692 
	C288.108948,133.865692 291.893616,133.865692 295.651825,133.865692 
	C294.169220,125.930748 292.710205,118.121780 291.023682,109.512428 
z"/>
<path fill="#F5F6F6" opacity="1.000000" stroke="none" 
	d="
M194.002304,208.054474 
	C193.976837,207.471771 194.021988,207.266434 193.940674,207.147751 
	C193.775131,206.906097 193.541336,206.711151 193.335678,206.496948 
	C193.225845,207.747223 193.023285,208.997299 193.020615,210.247803 
	C192.996033,221.701797 193.006149,233.155838 193.006149,244.809998 
	C190.571838,244.809998 188.504349,244.809998 186.219803,244.809998 
	C186.219803,224.235825 186.219803,203.833694 186.219803,183.210388 
	C189.299393,183.210388 192.232971,183.210388 195.396332,183.210388 
	C198.016876,195.631302 200.652252,208.122467 203.489990,221.572754 
	C206.292496,208.200821 208.886093,195.825638 211.532272,183.199570 
	C214.228668,183.199570 217.183380,183.199570 220.438049,183.199570 
	C220.438049,203.544327 220.438049,223.939667 220.438049,244.674866 
	C218.421494,244.674866 216.344254,244.674866 213.988495,244.674866 
	C213.988495,231.413162 213.988495,217.998230 213.988495,204.583298 
	C213.794083,204.555481 213.599686,204.527664 213.405273,204.499847 
	C211.110504,215.380753 208.815735,226.261658 206.466461,237.401001 
	C204.671967,237.401001 202.731903,237.401001 200.538132,237.401001 
	C198.355072,227.718201 196.185379,218.094650 194.002304,208.054474 
z"/>
<path fill="#FAFAFA" opacity="1.000000" stroke="none" 
	d="
M253.997696,227.998596 
	C253.997803,212.881424 253.997803,198.264053 253.997803,183.054672 
	C258.873688,183.054672 263.789032,182.267990 268.314392,183.260132 
	C273.593506,184.417526 277.227325,188.845551 278.789795,193.829559 
	C282.680115,206.239334 283.551575,218.798187 279.178131,231.458984 
	C275.794891,241.253128 271.130676,245.002701 260.943237,245.006134 
	C258.805756,245.006851 256.668274,245.006226 253.997589,245.006226 
	C253.997589,239.348282 253.997589,233.923340 253.997696,227.998596 
M261.055695,231.793488 
	C269.250580,234.117493 272.184448,229.866226 273.834259,221.165359 
	C274.748352,216.344635 274.070709,211.207169 273.982330,206.214737 
	C273.843414,198.364639 268.890381,194.280273 260.930542,195.574799 
	C260.930542,207.328476 260.930542,219.122772 261.055695,231.793488 
z"/>
<path fill="#F9F9F9" opacity="1.000000" stroke="none" 
	d="
M320.994110,157.931839 
	C320.993958,137.980515 320.993958,118.522049 320.993958,98.646980 
	C316.945740,98.646980 313.203979,98.646980 309.237915,98.646980 
	C309.237915,93.655937 309.237915,89.078056 309.237915,84.243439 
	C320.012695,84.243439 330.746552,84.243439 341.743439,84.243439 
	C341.743439,88.849770 341.743439,93.443321 341.743439,98.462875 
	C338.057587,98.462875 334.299164,98.462875 330.151154,98.462875 
	C330.151154,120.777679 330.151154,142.675690 330.151154,164.787262 
	C327.015656,164.787262 324.263916,164.787262 320.994263,164.787262 
	C320.994263,162.640182 320.994263,160.532425 320.994110,157.931839 
z"/>
<path fill="#FBFBFB" opacity="1.000000" stroke="none" 
	d="
M356.008423,198.710190 
	C358.014862,208.842422 360.006866,218.535233 362.000854,228.227631 
	C363.109680,233.617447 364.221802,239.006592 365.334930,244.408249 
	C357.788666,245.689728 356.975464,247.361938 355.905273,232.306427 
	C351.538177,232.306427 347.142273,232.306427 342.402924,232.306427 
	C341.835449,236.342010 341.271637,240.351761 340.660645,244.696991 
	C338.358673,244.696991 335.797150,244.696991 332.932526,244.696991 
	C335.428528,231.675934 337.884460,218.780853 340.377960,205.893051 
	C341.517975,200.000946 343.637482,194.126633 343.660309,188.237854 
	C343.683624,182.222015 346.899017,182.869781 350.604706,182.994797 
	C351.569366,183.027359 352.536072,182.999695 353.718384,182.999695 
	C354.511444,188.319687 355.253143,193.295135 356.008423,198.710190 
M348.586334,220.922195 
	C350.034332,220.922195 351.482300,220.922195 353.253723,220.922195 
	C352.020325,213.410706 350.873383,206.425766 349.726440,199.440826 
	C347.468323,206.089386 346.211975,212.876633 345.137207,219.692520 
	C345.095276,219.958191 346.792511,220.498108 348.586334,220.922195 
z"/>
<path fill="#FBFBFA" opacity="1.000000" stroke="none" 
	d="
M318.173248,232.541428 
	C320.346497,229.460159 322.206329,226.637833 324.499359,223.158112 
	C325.749725,223.158112 328.205048,223.158112 331.024170,223.158112 
	C329.515320,230.241287 328.560303,237.213409 323.083038,242.472137 
	C318.780090,246.603424 311.379974,245.915817 307.510437,241.421661 
	C301.950592,234.964325 300.380981,227.356201 299.994537,219.248703 
	C299.561157,210.156479 299.822449,201.190613 302.926208,192.430344 
	C304.589905,187.734741 310.543488,182.233902 315.168762,182.112259 
	C320.041016,181.984116 325.134094,185.828720 327.044067,191.199890 
	C328.599701,195.574554 330.039978,199.990250 331.679932,204.825653 
	C328.453583,204.825653 326.150726,204.825653 323.425659,204.825653 
	C322.954529,202.928711 322.971588,200.383591 321.755280,198.765503 
	C320.253845,196.768021 317.872711,194.652481 315.594299,194.278687 
	C313.938660,194.007080 310.955688,196.044174 310.083069,197.804626 
	C306.714996,204.599548 306.563293,212.040955 307.301666,219.450012 
	C307.587311,222.316025 308.197266,225.211746 309.120850,227.937607 
	C310.504608,232.021759 313.218536,234.290359 318.173248,232.541428 
z"/>
<path fill="#FBFBFB" opacity="1.000000" stroke="none" 
	d="
M415.001038,188.999985 
	C415.001007,191.123108 415.001007,192.769073 415.001007,194.788895 
	C410.408752,194.788895 405.991455,194.788895 401.240753,194.788895 
	C401.240753,199.215530 401.240753,203.284363 401.240753,207.719467 
	C405.088562,207.719467 409.179626,207.719467 413.635010,207.719467 
	C413.635010,211.470505 413.635010,214.876282 413.635010,218.818848 
	C409.741760,218.818848 405.526642,218.818848 401.120575,218.818848 
	C401.120575,223.601395 401.120575,227.855331 401.120575,232.409958 
	C405.652740,232.409958 410.086823,232.409958 414.760193,232.409958 
	C414.760193,236.634476 414.760193,240.561905 414.760193,244.749176 
	C407.986023,244.749176 401.250336,244.749176 394.255249,244.749176 
	C394.255249,224.334396 394.255249,203.942444 394.255249,183.273285 
	C400.974030,183.273285 407.708466,183.273285 415.001099,183.273285 
	C415.001099,184.993286 415.001099,186.758057 415.001038,188.999985 
z"/>
<path fill="#FDFDFD" opacity="1.000000" stroke="none" 
	d="
M241.957123,208.003937 
	C243.565704,208.003983 244.692261,208.003983 246.032928,208.003983 
	C246.032928,211.809982 246.032928,215.208923 246.032928,218.889282 
	C242.200226,218.889282 238.411469,218.889282 234.310699,218.889282 
	C234.310699,223.535782 234.310699,227.910019 234.310699,232.482254 
	C238.732758,232.482254 243.026794,232.482254 247.659500,232.482254 
	C247.659500,236.559814 247.659500,240.455276 247.659500,244.678894 
	C241.126083,244.678894 234.382767,244.678894 227.318207,244.678894 
	C227.318207,224.440231 227.318207,204.034195 227.318207,183.314117 
	C233.895187,183.314117 240.636520,183.314117 247.690247,183.314117 
	C247.690247,186.909363 247.690247,190.649933 247.690247,194.795197 
	C243.424026,194.795197 239.007935,194.795197 234.296906,194.795197 
	C234.296906,199.256195 234.296906,203.330399 234.296906,208.003876 
	C236.607147,208.003876 239.041122,208.003876 241.957123,208.003937 
z"/>
<path fill="#FCFCFB" opacity="1.000000" stroke="none" 
	d="
M366.202942,183.000183 
	C373.977020,182.998672 381.269287,182.998672 388.776855,182.998672 
	C388.776855,186.945892 388.776855,190.557480 388.776855,194.591400 
	C386.156769,194.591400 383.413361,194.591400 380.133545,194.591400 
	C380.133545,211.543304 380.133545,228.088318 380.133545,244.813217 
	C377.531799,244.813217 375.463623,244.813217 373.035645,244.813217 
	C373.035645,228.209274 373.035645,211.788895 373.035645,194.991714 
	C369.956940,194.991714 367.214569,194.991714 364.000488,194.991714 
	C364.000488,191.348114 363.912354,188.061386 364.078186,184.787521 
	C364.109650,184.166077 365.147583,183.595657 366.202942,183.000183 
z"/>
<path fill="#ECECEC" opacity="1.000000" stroke="none" 
	d="
M294.031006,235.961609 
	C294.030823,239.098694 294.030823,241.741318 294.030823,244.708344 
	C291.832794,244.708344 289.799957,244.708344 287.506378,244.708344 
	C287.506378,224.311874 287.506378,203.950027 287.506378,183.278091 
	C289.494110,183.278091 291.533783,183.278091 294.031158,183.278091 
	C294.031158,200.678146 294.031158,218.072647 294.031006,235.961609 
z"/>
<path fill="#EEEEEE" opacity="1.000000" stroke="none" 
	d="
M253.029205,298.053314 
	C250.838165,302.280701 249.747284,299.293488 249.232849,297.607086 
	C248.116013,293.945892 247.470779,290.140869 246.303116,286.425476 
	C244.893951,291.901947 246.724640,297.820404 245.021088,303.161194 
	C244.432617,303.082977 243.844162,303.004761 243.255692,302.926575 
	C243.255692,292.851868 243.255692,282.777161 243.255692,271.101715 
	C244.933914,272.601379 246.617493,273.367859 246.926285,274.506958 
	C248.421539,280.023132 249.547577,285.639404 251.634979,291.232513 
	C252.746826,285.912659 254.212692,280.633728 254.834213,275.257202 
	C255.191742,272.164337 256.199005,271.564301 258.606934,272.260071 
	C258.606934,282.528473 258.607239,292.708099 258.526794,302.887115 
	C258.526764,302.892242 257.307526,302.887756 256.169006,302.887756 
	C256.169006,297.312744 256.169006,291.837494 256.169006,286.362213 
	C256.004730,286.370575 255.840469,286.378906 255.676208,286.387268 
	C254.795273,290.132721 253.914352,293.878174 253.029205,298.053314 
z"/>
<path fill="#F1F1F1" opacity="1.000000" stroke="none" 
	d="
M379.972656,302.009705 
	C378.671265,301.795502 376.670929,301.495178 376.217560,300.494202 
	C375.094269,298.014252 374.631409,295.224945 374.000214,292.537170 
	C373.735901,291.411682 373.717072,290.228546 373.586639,289.071625 
	C372.737885,289.755554 371.889160,290.439453 371.040405,291.123352 
	C371.040405,295.027039 371.040405,298.930725 371.040405,302.834412 
	C370.604401,302.991669 370.168396,303.148926 369.732391,303.306183 
	C369.198578,302.392914 368.212219,301.485199 368.200897,300.565491 
	C368.086151,291.273773 368.130981,281.980133 368.130981,272.407166 
	C372.752014,271.884369 376.885376,271.217621 379.087646,276.641663 
	C381.145996,281.711273 380.181610,287.136902 376.042755,290.733032 
	C377.349304,294.342804 378.663513,297.973724 379.972656,302.009705 
M376.980194,280.610809 
	C375.226471,276.865387 375.226471,276.865387 371.191376,277.552338 
	C371.191376,280.462158 371.191376,283.371979 371.191376,286.362671 
	C375.553467,287.343597 376.773682,284.973846 376.980194,280.610809 
z"/>
<path fill="#F3F3F3" opacity="1.000000" stroke="none" 
	d="
M386.569214,272.243347 
	C389.798859,272.118561 392.600464,272.118561 395.670471,272.118561 
	C395.670471,273.878448 395.670471,275.258331 395.670471,276.972504 
	C393.221771,276.972504 390.935486,276.972504 388.474182,276.972504 
	C388.474182,279.716339 388.474182,282.135254 388.474182,284.787018 
	C390.446289,284.894714 392.390869,285.000916 394.674438,285.125641 
	C394.674438,286.640717 394.674438,288.160370 394.674438,289.963257 
	C392.653656,289.963257 390.702484,289.963257 388.453156,289.963257 
	C388.453156,292.767548 388.453156,295.311859 388.453156,298.144836 
	C390.720734,298.144836 393.018036,298.144836 395.663971,298.144836 
	C395.810577,299.769135 395.935791,301.156372 396.083557,302.793427 
	C392.528595,302.793427 389.266357,302.793427 386.141174,302.793427 
	C386.141174,292.578583 386.141174,282.473358 386.569214,272.243347 
z"/>
<path fill="#F7F7F7" opacity="1.000000" stroke="none" 
	d="
M351.992676,303.096741 
	C345.869781,294.676056 345.047363,282.670044 350.081787,275.547516 
	C351.229462,273.923828 353.865540,271.792419 355.147339,272.169495 
	C357.364838,272.821869 360.547852,275.122101 360.710297,276.962067 
	C361.354279,284.256012 361.617798,291.721436 360.682098,298.949799 
	C360.303375,301.875580 357.073395,305.549805 351.992676,303.096741 
M359.648712,290.886017 
	C359.085907,287.038971 358.761353,283.132629 357.827271,279.377930 
	C357.512573,278.112823 355.511047,276.272858 354.530609,276.415497 
	C353.259552,276.600342 351.457367,278.383453 351.254211,279.691406 
	C350.604919,283.871429 350.123718,288.191742 350.500977,292.374603 
	C350.730560,294.920380 350.763733,299.523315 354.704895,298.780792 
	C356.604309,298.422882 357.764252,294.140137 359.648712,290.886017 
z"/>
<path fill="#F6F6F6" opacity="1.000000" stroke="none" 
	d="
M205.985718,292.964905 
	C205.985947,285.825317 205.985947,279.179626 205.985947,272.500793 
	C208.223175,272.785889 208.223175,272.785889 209.330292,284.763641 
	C211.717316,284.763641 214.117615,284.763641 217.407928,284.763641 
	C217.407928,280.385651 217.407928,276.223114 217.407928,272.060547 
	C220.367081,277.803802 219.592545,301.608887 216.967621,302.961121 
	C216.967621,298.753662 216.967621,294.691650 216.967621,290.327148 
	C214.253174,290.327148 211.859741,290.327148 208.969101,290.327148 
	C208.969101,293.707672 209.066879,297.160004 208.897812,300.599213 
	C208.857422,301.420502 207.927032,302.198059 207.406006,302.995728 
	C206.934967,302.149353 206.130920,301.330750 206.057449,300.451172 
	C205.863983,298.134521 205.987961,295.791382 205.985718,292.964905 
z"/>
<path fill="#F7F7F7" opacity="1.000000" stroke="none" 
	d="
M236.002213,300.211517 
	C235.314926,301.448334 234.690247,302.805481 233.914169,302.898407 
	C231.479034,303.190063 228.986893,303.005707 226.251526,303.005707 
	C226.251526,292.711578 226.251526,282.652985 226.251526,272.348724 
	C229.317184,272.348724 232.387329,272.348724 235.736465,272.348724 
	C235.736465,273.737915 235.736465,275.130524 235.736465,276.851410 
	C233.674988,276.941559 231.583969,277.032959 229.256836,277.134705 
	C229.256836,279.669708 229.256836,282.079071 229.256836,284.838959 
	C231.018982,284.923279 232.779800,285.007507 234.906876,285.109253 
	C234.983307,286.666229 235.057358,288.174805 235.148148,290.024353 
	C232.947220,290.024353 231.178680,290.024353 229.219818,290.024353 
	C229.219818,292.932587 229.219818,295.515533 229.219818,297.488220 
	C231.724335,298.325500 233.859940,299.039459 236.002213,300.211517 
z"/>
<path fill="#F9F9F9" opacity="1.000000" stroke="none" 
	d="
M285.991882,279.768372 
	C285.032471,279.705902 284.003906,279.358551 283.161774,278.752350 
	C282.110382,277.995453 281.212402,277.025421 280.248199,276.147400 
	C279.503662,277.653412 277.922028,279.352295 278.214020,280.619476 
	C278.634308,282.443787 280.152466,284.270721 281.668915,285.537872 
	C285.829742,289.014679 287.777466,296.196075 284.932465,300.313446 
	C283.814301,301.931702 280.930817,304.153076 280.001251,303.706451 
	C277.946381,302.719055 276.470917,300.316193 275.077515,298.273529 
	C274.578949,297.542633 274.997589,296.186127 274.997589,294.393372 
	C276.365448,295.335693 277.095367,295.862213 277.848938,296.352417 
	C279.109100,297.172089 280.384338,297.968597 281.653229,298.774841 
	C282.118530,297.005920 283.299500,295.024719 282.854858,293.525696 
	C282.376862,291.914154 280.512573,290.570190 279.007233,289.435822 
	C275.459381,286.762207 273.267120,280.602264 275.320007,276.690857 
	C276.355804,274.717346 278.535065,272.654053 280.568298,272.160858 
	C281.729736,271.879120 283.790863,274.540680 285.141510,276.135620 
	C285.793243,276.905243 285.739716,278.272186 285.991882,279.768372 
z"/>
<path fill="#F6F6F6" opacity="1.000000" stroke="none" 
	d="
M320.169922,277.320312 
	C317.135895,281.684631 320.718567,283.599030 322.895569,285.710327 
	C326.269073,288.982025 328.908020,296.506500 326.726685,300.209991 
	C325.664642,302.013062 322.235138,303.992645 320.528076,303.523651 
	C316.763885,302.489471 315.728394,298.949463 316.396637,294.381531 
	C317.490814,295.297638 318.038239,295.829895 318.657227,296.258881 
	C319.939850,297.147797 321.260468,297.981842 322.565460,298.838470 
	C323.057404,297.064209 324.152618,295.184326 323.865814,293.546448 
	C323.597504,292.014343 322.093384,290.436493 320.733917,289.404877 
	C315.873383,285.716492 314.504181,279.782227 317.925446,274.691101 
	C318.787750,273.407959 320.757935,272.037323 322.106018,272.143402 
	C323.492279,272.252441 325.145630,273.885834 325.940918,275.276093 
	C326.827881,276.826691 326.880157,278.854736 327.295746,280.674957 
	C326.838440,280.878723 326.381134,281.082489 325.923828,281.286255 
	C325.277649,280.236206 324.840454,278.914581 323.927094,278.211761 
	C322.997803,277.496674 321.599548,277.391083 320.169922,277.320312 
z"/>
<path fill="#F6F6F6" opacity="1.000000" stroke="none" 
	d="
M185.986450,288.010162 
	C186.312897,282.716949 185.488220,277.420868 189.725357,273.890045 
	C191.177277,272.680176 194.998169,271.820740 195.618637,272.565582 
	C197.604736,274.949829 198.612091,278.154724 199.909576,281.081696 
	C199.948196,281.168854 198.906860,282.035248 198.553574,281.928375 
	C197.955887,281.747528 197.432526,281.137207 197.007492,280.604126 
	C195.760666,279.040253 194.577606,277.425507 193.309387,275.751251 
	C188.544403,280.547211 187.136749,291.534119 190.171967,296.453918 
	C192.267334,299.850281 194.188324,299.824768 196.327698,296.490204 
	C197.029190,295.396820 198.057098,294.512878 198.935715,293.533142 
	C199.455856,293.860199 199.975983,294.187256 200.496109,294.514313 
	C199.459167,296.732544 198.740097,299.196747 197.278137,301.086121 
	C196.231216,302.439117 193.653809,304.165344 192.699387,303.718262 
	C190.501266,302.688507 188.015686,300.752716 187.223404,298.603363 
	C186.078857,295.498474 186.330490,291.878967 185.986450,288.010162 
z"/>
<path fill="#F7F7F7" opacity="1.000000" stroke="none" 
	d="
M298.011292,300.721619 
	C297.459534,301.794037 296.909119,302.391083 296.358704,302.988129 
	C295.903381,302.128998 295.066467,301.275757 295.053101,300.409760 
	C294.945038,293.432007 294.994751,286.451874 294.987152,279.472443 
	C294.986450,278.826996 294.922119,278.181641 294.870056,277.215302 
	C293.365662,277.089874 291.959015,276.972595 290.217133,276.827362 
	C290.133606,275.416351 290.050262,274.007751 289.951996,272.347107 
	C294.264130,272.347107 298.337463,272.347107 302.744202,272.347107 
	C302.811859,273.887360 302.872284,275.262268 302.949890,277.027802 
	C301.149933,277.027802 299.745300,277.027802 298.012634,277.027802 
	C298.012634,285.014526 298.012634,292.630402 298.011292,300.721619 
z"/>
<path fill="#F1F1F1" opacity="1.000000" stroke="none" 
	d="
M336.067749,284.071838 
	C336.067413,281.598999 336.067413,279.616699 336.067413,279.044891 
	C333.950134,276.749908 332.556152,275.238922 331.162140,273.727936 
	C331.489349,273.302490 331.816589,272.877014 332.143799,272.451569 
	C335.881775,272.451569 339.619781,272.451569 343.764771,272.451569 
	C343.854309,273.674194 343.956146,275.064636 344.080658,276.764496 
	C342.413788,276.908203 340.983276,277.031525 339.040863,277.198975 
	C339.040863,285.722626 339.040863,294.302094 339.040863,302.881531 
	C338.508972,303.024139 337.977051,303.166748 337.445160,303.309357 
	C336.991821,302.224426 336.177338,301.149597 336.146759,300.052917 
	C336.002716,294.892700 336.073761,289.726501 336.067749,284.071838 
z"/>
<path fill="#FDFDFD" opacity="1.000000" stroke="none" 
	d="
M269.005371,282.040985 
	C269.005524,289.179260 269.005524,295.824585 269.005524,304.092102 
	C267.416351,302.475067 266.103668,301.763977 266.093262,301.034271 
	C265.955750,291.412659 266.001648,281.788483 266.001648,271.081604 
	C270.940216,274.348145 268.124786,278.437469 269.005371,282.040985 
z"/>
<path fill="#FF9EE0" opacity="1.000000" stroke="none" 
	d="
M161.880676,214.513657 
	C161.507553,214.372437 161.038116,213.778061 161.039291,213.184616 
	C161.085556,189.685074 161.174545,166.185608 161.513748,142.363586 
	C161.847626,166.047668 161.925735,190.054306 161.880676,214.513657 
z"/>
<path fill="#FF9EE0" opacity="1.000000" stroke="none" 
	d="
M85.029358,289.411499 
	C97.017197,289.120575 109.181412,289.206543 121.659111,289.561584 
	C120.775833,290.217010 119.582077,290.927551 118.381859,290.938629 
	C108.496185,291.029846 98.608932,291.031342 88.723289,290.938934 
	C87.547295,290.927948 86.378090,290.189606 85.029358,289.411499 
z"/>
<path fill="#FE9CF0" opacity="1.000000" stroke="none" 
	d="
M121.792480,67.595184 
	C110.081558,67.840286 98.283554,67.691864 86.195923,67.231232 
	C87.240616,66.611069 88.572655,66.048508 89.909660,66.036461 
	C98.639740,65.957771 107.371880,65.929863 116.100929,66.054512 
	C117.974174,66.081261 119.837509,66.801094 121.792480,67.595184 
z"/>
<path fill="#DF88D5" opacity="1.000000" stroke="none" 
	d="
M130.103226,135.060211 
	C129.484756,134.505646 128.866287,133.951065 128.153122,133.091812 
	C136.024155,132.905563 143.995453,132.893036 151.951797,133.231873 
	C154.013779,133.319687 156.028915,134.507492 158.004761,135.590485 
	C157.943970,135.990952 157.453888,135.978409 156.911804,135.688019 
	C147.614227,135.285156 138.858719,135.172684 130.103226,135.060211 
z"/>
<path fill="#F99AE4" opacity="1.000000" stroke="none" 
	d="
M50.100861,222.514038 
	C58.492805,222.112122 67.073212,222.015030 75.652504,222.075668 
	C76.659836,222.082794 77.661026,222.958069 78.802162,223.815872 
	C71.125175,224.127563 63.309593,224.117203 55.498138,223.932495 
	C53.754322,223.891266 52.024986,223.237717 50.100861,222.514038 
z"/>
<path fill="#F99AE4" opacity="1.000000" stroke="none" 
	d="
M129.240631,224.199173 
	C130.580719,223.557861 132.366333,222.214569 134.227066,222.100891 
	C141.955826,221.628677 149.707245,221.527374 157.870636,221.185455 
	C156.307770,222.050583 154.359726,223.761673 152.335220,223.857483 
	C144.810669,224.213577 137.260956,224.038376 129.240631,224.199173 
z"/>
<path fill="#FDB1F7" opacity="1.000000" stroke="none" 
	d="
M52.047558,135.056381 
	C51.520607,135.030045 50.993656,135.003708 50.073677,134.932678 
	C49.908081,134.611099 50.135521,134.334198 51.107628,134.025818 
	C60.647198,133.908478 69.442101,133.822632 78.237007,133.736786 
	C78.184769,133.946304 78.132523,134.155853 77.569611,134.684753 
	C68.721809,135.021500 60.384686,135.038940 52.047558,135.056381 
z"/>
<path fill="#C369AE" opacity="1.000000" stroke="none" 
	d="
M78.373596,133.630493 
	C69.442101,133.822632 60.647198,133.908478 51.379562,133.955368 
	C54.560898,133.616913 58.210300,133.166489 61.870129,133.053497 
	C67.269463,132.886780 72.676216,132.960266 78.547302,132.984283 
	C78.885307,133.239670 78.717102,133.402039 78.373596,133.630493 
z"/>
<path fill="#F99AE4" opacity="1.000000" stroke="none" 
	d="
M78.920700,224.326843 
	C79.125389,224.266693 79.434280,224.470428 79.850052,224.938019 
	C79.646255,224.998138 79.335587,224.794434 78.920700,224.326843 
z"/>
<path fill="#060408" opacity="1.000000" stroke="none" 
	d="
M102.223907,164.030640 
	C102.093834,162.057953 101.963753,160.085266 101.867737,158.629105 
	C97.467659,159.777908 93.122093,160.912476 88.530647,162.111252 
	C88.369888,160.664932 88.256660,159.646210 88.139771,158.594559 
	C82.066147,159.962265 75.626831,153.450211 73.425812,144.950363 
	C79.263695,141.573303 84.934593,138.597717 90.257187,135.093170 
	C93.190567,133.161758 94.899864,134.300430 96.152893,136.547867 
	C97.396324,138.778091 98.013130,141.361755 98.867035,143.803589 
	C99.369606,145.240738 99.798759,146.703568 100.260933,148.154846 
	C100.891846,148.064331 101.522751,147.973801 102.153656,147.883286 
	C101.786903,144.373764 101.275658,140.871765 101.092384,137.352692 
	C100.893089,133.525848 100.632530,129.641068 101.067184,125.858368 
	C101.568459,121.495979 104.923935,122.728012 105.934326,124.886841 
	C107.368851,127.951935 107.818970,131.725952 107.754143,135.179504 
	C107.679115,139.176010 106.589172,143.153488 105.661163,147.771698 
	C105.436394,149.236099 105.490326,150.068024 105.544250,150.899963 
	C105.574066,151.423752 105.603882,151.947525 105.389923,153.040314 
	C105.087540,153.908264 105.085289,154.207672 105.139389,154.507492 
	C105.384880,154.733978 105.453072,155.005066 105.187843,155.943649 
	C105.043457,157.445053 105.055176,158.323563 105.066895,159.202072 
	C105.098480,161.191254 105.130058,163.180450 104.758270,165.550446 
	C103.644569,165.297714 102.934235,164.664169 102.223907,164.030640 
z"/>
<path fill="#070508" opacity="1.000000" stroke="none" 
	d="
M106.963432,218.158585 
	C110.359985,220.731140 111.973038,227.134796 110.567558,232.363251 
	C110.319862,233.284698 110.180832,234.235336 109.543411,235.575928 
	C108.395676,234.987442 107.696152,233.995544 106.996841,232.753525 
	C106.995300,232.336716 106.993561,232.170029 107.030914,231.645370 
	C106.697746,230.197083 106.325478,229.106750 106.263824,227.969025 
	C106.743401,227.377213 106.912354,226.832840 107.081299,226.288452 
	C106.398209,226.875702 105.715126,227.462952 105.020813,228.033600 
	C105.009575,228.016998 105.047470,228.034225 104.794502,228.113235 
	C104.081650,228.455093 103.621758,228.717926 103.092926,228.578674 
	C103.184608,225.943985 103.345238,223.711349 103.505745,221.480316 
	C103.174606,221.634125 102.620132,221.891678 101.890381,221.872192 
	C100.767632,221.047806 99.820152,220.500473 98.872681,219.953125 
	C99.234909,218.568497 99.597137,217.183868 100.182274,215.256348 
	C100.852676,213.712738 101.300179,212.712021 101.747681,211.711319 
	C101.500298,211.572830 101.252922,211.434341 101.005539,211.295853 
	C100.297882,211.881989 99.590218,212.468124 98.882561,213.054260 
	C94.487343,207.595734 94.740265,199.624237 99.632973,194.572723 
	C96.748405,191.214767 93.043518,188.223419 91.192924,184.346863 
	C89.591972,180.993240 89.418678,176.541367 89.938866,172.757019 
	C90.224792,170.676926 93.083351,167.746124 95.083496,167.481979 
	C96.722816,167.265472 98.808006,170.425079 100.878967,172.249710 
	C99.461960,173.308426 99.122429,173.718689 98.695808,173.853653 
	C96.874367,174.429916 93.421432,175.045059 93.450241,175.429977 
	C93.636223,177.914932 94.163002,180.587326 95.406616,182.713577 
	C96.420967,184.447861 98.589584,185.507050 100.706406,187.292053 
	C104.320724,190.622437 106.162704,187.975403 108.177872,186.060913 
	C109.698219,184.929657 111.634361,184.076035 112.625572,182.591492 
	C113.681992,181.009293 114.831512,178.321106 114.165939,177.031784 
	C113.173981,175.110229 110.626106,173.991882 107.846931,171.840118 
	C109.186424,170.525330 110.837006,167.617325 112.788887,167.398636 
	C114.337845,167.225098 116.814758,170.043884 117.899529,172.061111 
	C120.594086,177.071915 117.961754,184.645950 112.577454,189.022430 
	C111.380966,189.994949 110.334122,191.151566 108.815903,192.616867 
	C108.147652,193.248291 107.881882,193.486267 107.616119,193.724258 
	C107.616119,193.724258 107.647186,193.621414 107.267593,193.737854 
	C99.972374,197.463928 97.971764,205.950851 103.133293,209.989304 
	C104.374596,209.322845 105.636330,208.645401 107.180130,207.776062 
	C107.633606,206.706818 107.805023,205.829468 107.999908,204.575790 
	C108.064034,203.449707 108.104691,202.699951 108.347351,201.785782 
	C108.129776,201.079285 107.710205,200.537216 107.159897,199.638077 
	C107.637299,197.837799 108.245453,196.394562 108.853592,194.951324 
	C112.335648,196.407440 114.477531,201.330338 112.655006,205.421661 
	C110.923416,209.308853 108.296295,212.797104 105.713669,216.962341 
	C105.601967,218.083954 105.839531,218.703995 106.077103,219.324051 
	C106.372543,218.935562 106.667992,218.547073 106.963432,218.158585 
z"/>
<path fill="#060408" opacity="1.000000" stroke="none" 
	d="
M132.383087,150.042114 
	C131.084534,151.891190 130.314011,153.723129 129.015793,155.031448 
	C127.163399,156.898239 125.153114,159.119171 122.795219,159.850281 
	C119.499023,160.872330 115.819199,160.927536 112.305550,160.912750 
	C107.379669,160.892044 106.897507,156.554550 107.214157,153.488815 
	C107.775169,148.057205 109.316864,142.674454 110.934273,137.420914 
	C112.229584,133.213577 115.432480,134.468262 118.175972,135.882751 
	C123.276573,138.512543 128.296875,141.298035 134.137314,144.442215 
	C133.826019,145.581253 133.250732,147.686188 132.383087,150.042114 
z"/>
<path fill="#040406" opacity="1.000000" stroke="none" 
	d="
M106.996628,233.003632 
	C107.696152,233.995544 108.395676,234.987442 109.451797,235.990814 
	C109.113091,237.262451 108.417793,238.522614 107.060089,239.904724 
	C104.962364,240.671448 103.527046,241.316208 102.091736,241.960968 
	C100.724411,238.203674 99.357086,234.446350 98.014877,230.058777 
	C97.928162,229.019897 97.816338,228.611267 97.704521,228.202652 
	C97.541435,227.700272 97.378342,227.197906 97.476524,226.157623 
	C97.886818,225.376877 97.951599,225.113312 97.932129,224.829041 
	C98.025894,223.326523 98.119652,221.824005 98.543045,220.137299 
	C99.820152,220.500473 100.767632,221.047806 101.875244,222.229950 
	C101.964737,223.575211 101.894096,224.285645 101.547302,225.043671 
	C100.981972,225.407394 100.692802,225.723526 100.403633,226.039642 
	C100.874428,226.360947 101.345215,226.682236 101.883545,227.339081 
	C102.300049,229.118958 102.649017,230.563324 102.908661,232.243149 
	C102.841042,232.904190 102.862755,233.329773 102.884468,233.755341 
	C103.264366,233.509628 103.644272,233.263901 104.395737,233.012268 
	C105.510414,233.005447 106.253525,233.004532 106.996628,233.003632 
M105.547791,237.363174 
	C105.164207,237.058609 104.780624,236.754028 104.397041,236.449448 
	C104.200211,236.821655 104.003380,237.193863 103.806549,237.566071 
	C104.256882,237.625900 104.707207,237.685730 105.547791,237.363174 
z"/>
<path fill="#F9A9EF" opacity="1.000000" stroke="none" 
	d="
M106.898071,207.967957 
	C105.636330,208.645401 104.374596,209.322845 103.133293,209.989304 
	C97.971764,205.950851 99.972374,197.463928 107.214058,193.733337 
	C107.795326,193.951660 108.050522,194.290924 108.579659,194.790771 
	C108.245453,196.394562 107.637299,197.837799 107.145950,199.938660 
	C107.556946,201.047592 107.851143,201.498901 108.145348,201.950195 
	C108.104691,202.699951 108.064034,203.449707 107.677567,204.713242 
	C107.187187,206.140671 107.042633,207.054306 106.898071,207.967957 
z"/>
<path fill="#040406" opacity="1.000000" stroke="none" 
	d="
M100.979805,249.994034 
	C100.987144,249.825226 100.994484,249.656403 101.356445,249.199585 
	C102.007973,248.594254 102.304886,248.276932 102.601807,247.959610 
	C102.119827,247.638641 101.637856,247.317657 101.155899,246.996689 
	C101.389259,245.890823 101.622620,244.784973 102.275635,243.503433 
	C103.163750,243.957382 103.632202,244.586990 104.100647,245.216614 
	C106.640900,249.425797 107.841347,253.531876 105.802055,258.612946 
	C104.521675,261.803101 105.004303,265.700897 104.612526,270.249969 
	C103.308350,263.510223 102.176567,257.661407 101.301514,251.386566 
	C101.802574,250.788132 102.046906,250.615723 102.291237,250.443314 
	C101.854095,250.293549 101.416946,250.143799 100.979805,249.994034 
z"/>
<path fill="#070609" opacity="1.000000" stroke="none" 
	d="
M102.161697,164.457428 
	C102.934235,164.664169 103.644569,165.297714 104.648018,165.965118 
	C104.964104,169.046753 104.987068,172.094498 105.021103,176.047806 
	C105.032166,180.289307 105.032166,183.625244 105.032166,186.961166 
	C104.299858,186.951889 103.567543,186.942596 102.835236,186.933319 
	C102.835236,183.634750 102.835236,180.336197 102.835236,177.037628 
	C102.589989,172.986481 102.344734,168.935349 102.161697,164.457428 
z"/>
<path fill="#FDB1F7" opacity="1.000000" stroke="none" 
	d="
M102.582367,177.343811 
	C102.835236,180.336197 102.835236,183.634750 102.835236,186.933319 
	C103.567543,186.942596 104.299858,186.951889 105.032166,186.961166 
	C105.032166,183.625244 105.032166,180.289307 105.099075,176.499237 
	C105.903343,179.326996 106.640709,182.608887 107.777969,185.975845 
	C106.162704,187.975403 104.320724,190.622437 101.033775,187.384354 
	C101.377266,183.916779 101.853378,180.783371 102.582367,177.343811 
z"/>
<path fill="#EC84B6" opacity="1.000000" stroke="none" 
	d="
M130.388718,135.347687 
	C138.858719,135.172684 147.614227,135.285156 156.666748,135.681580 
	C148.200592,135.855392 139.437408,135.745285 130.388718,135.347687 
z"/>
<path fill="#EC84B6" opacity="1.000000" stroke="none" 
	d="
M52.343056,135.341675 
	C60.384686,135.038940 68.721809,135.021500 77.526985,135.005890 
	C73.974998,135.338257 69.959213,135.858368 65.933800,135.948502 
	C61.506668,136.047607 57.070683,135.751129 52.343056,135.341675 
z"/>
<path fill="#070508" opacity="1.000000" stroke="none" 
	d="
M104.401428,245.051468 
	C103.632202,244.586990 103.163750,243.957382 102.436501,243.177826 
	C102.129654,242.852783 102.081604,242.677673 102.062637,242.231781 
	C103.527046,241.316208 104.962364,240.671448 106.767601,240.039673 
	C106.325752,241.663879 105.513977,243.275101 104.401428,245.051468 
z"/>
<path fill="#0A060A" opacity="1.000000" stroke="none" 
	d="
M98.925674,213.358826 
	C99.590218,212.468124 100.297882,211.881989 101.005539,211.295853 
	C101.252922,211.434341 101.500298,211.572830 101.747681,211.711319 
	C101.300179,212.712021 100.852676,213.712738 100.132401,214.887573 
	C99.562683,214.595612 99.265732,214.129501 98.925674,213.358826 
z"/>
<path fill="#0A060A" opacity="1.000000" stroke="none" 
	d="
M106.828339,217.912567 
	C106.667992,218.547073 106.372543,218.935562 106.077103,219.324051 
	C105.839531,218.703995 105.601967,218.083954 105.552872,217.284454 
	C106.058640,217.292175 106.375946,217.479355 106.828339,217.912567 
z"/>
<path fill="#0A060A" opacity="1.000000" stroke="none" 
	d="
M101.082779,247.328125 
	C101.637856,247.317657 102.119827,247.638641 102.601807,247.959610 
	C102.304886,248.276932 102.007973,248.594254 101.429794,248.956970 
	C101.102249,248.554779 101.055954,248.107178 101.082779,247.328125 
z"/>
<path fill="#070609" opacity="1.000000" stroke="none" 
	d="
M105.199173,158.928772 
	C105.055176,158.323563 105.043457,157.445053 105.063385,156.125595 
	C105.173836,156.674911 105.252640,157.665192 105.199173,158.928772 
z"/>
<path fill="#070609" opacity="1.000000" stroke="none" 
	d="
M105.677399,150.559387 
	C105.490326,150.068024 105.436394,149.236099 105.582283,148.222488 
	C105.791573,148.766815 105.801056,149.492828 105.677399,150.559387 
z"/>
<path fill="#0A060A" opacity="1.000000" stroke="none" 
	d="
M100.742104,250.066788 
	C101.416946,250.143799 101.854095,250.293549 102.291237,250.443314 
	C102.046906,250.615723 101.802574,250.788132 101.311615,250.971802 
	C100.878120,250.701889 100.691261,250.420715 100.742104,250.066788 
z"/>
<path fill="#0A060A" opacity="1.000000" stroke="none" 
	d="
M97.616608,228.413666 
	C97.816338,228.611267 97.928162,229.019897 98.041588,229.643646 
	C97.871704,229.447418 97.700203,229.036041 97.616608,228.413666 
z"/>
<path fill="#070609" opacity="1.000000" stroke="none" 
	d="
M105.301117,154.316681 
	C105.085289,154.207672 105.087540,153.908264 105.226387,153.400787 
	C105.556488,153.470169 105.608551,153.781372 105.301117,154.316681 
z"/>
<path fill="#F9A9EF" opacity="1.000000" stroke="none" 
	d="
M107.912155,193.718750 
	C107.881882,193.486267 108.147652,193.248291 108.686897,192.939056 
	C108.709641,193.149612 108.458916,193.431442 107.912155,193.718750 
z"/>
<path fill="#0A060A" opacity="1.000000" stroke="none" 
	d="
M97.748322,224.958878 
	C97.951599,225.113312 97.886818,225.376877 97.597427,225.770538 
	C97.279144,225.616241 97.314957,225.338684 97.748322,224.958878 
z"/>
<path fill="#040406" opacity="1.000000" stroke="none" 
	d="
M210.971161,136.582062 
	C210.991318,138.341522 210.994995,139.673828 210.989990,141.006119 
	C210.959793,149.038437 209.038910,151.004654 201.230377,151.001068 
	C199.601959,151.000336 197.973541,151.000961 196.095352,151.000961 
	C196.095352,143.912277 196.095352,137.188782 196.095352,130.482010 
	C206.536331,129.212875 207.818253,129.709137 210.971161,136.582062 
z"/>
<path fill="#040406" opacity="1.000000" stroke="none" 
	d="
M197.942627,97.752487 
	C202.199066,97.935318 206.738220,96.404121 208.289536,101.826675 
	C209.567947,106.295319 210.804504,111.280869 206.689224,114.545853 
	C204.164322,116.549065 200.194504,116.731049 195.872467,118.032234 
	C195.872467,110.766747 195.849487,104.706406 195.940125,98.647774 
	C195.944687,98.343925 196.933258,98.054779 197.942627,97.752487 
z"/>
<path fill="#040406" opacity="1.000000" stroke="none" 
	d="
M291.137421,109.912621 
	C292.710205,118.121780 294.169220,125.930748 295.651825,133.865692 
	C291.893616,133.865692 288.108948,133.865692 284.362885,133.865692 
	C286.044525,124.350220 287.704956,114.954620 289.365387,105.559029 
	C289.582275,105.495010 289.799133,105.430992 290.016022,105.366974 
	C290.351898,106.748787 290.687805,108.130608 291.137421,109.912621 
z"/>
<path fill="#040406" opacity="1.000000" stroke="none" 
	d="
M260.993103,231.355286 
	C260.930542,219.122772 260.930542,207.328476 260.930542,195.574799 
	C268.890381,194.280273 273.843414,198.364639 273.982330,206.214737 
	C274.070709,211.207169 274.748352,216.344635 273.834259,221.165359 
	C272.184448,229.866226 269.250580,234.117493 260.993103,231.355286 
z"/>
<path fill="#08090B" opacity="1.000000" stroke="none" 
	d="
M348.132843,220.916229 
	C346.792511,220.498108 345.095276,219.958191 345.137207,219.692520 
	C346.211975,212.876633 347.468323,206.089386 349.726440,199.440826 
	C350.873383,206.425766 352.020325,213.410706 353.253723,220.922195 
	C351.482300,220.922195 350.034332,220.922195 348.132843,220.916229 
z"/>
<path fill="#08090B" opacity="1.000000" stroke="none" 
	d="
M376.984009,281.024048 
	C376.773682,284.973846 375.553467,287.343597 371.191376,286.362671 
	C371.191376,283.371979 371.191376,280.462158 371.187744,277.551331 
	C375.226471,276.865387 375.226471,276.865387 376.984009,281.024048 
z"/>
<path fill="#060708" opacity="1.000000" stroke="none" 
	d="
M359.453857,291.260315 
	C357.764252,294.140137 356.604309,298.422882 354.704895,298.780792 
	C350.763733,299.523315 350.730560,294.920380 350.500977,292.374603 
	C350.123718,288.191742 350.604919,283.871429 351.254211,279.691406 
	C351.457367,278.383453 353.259552,276.600342 354.530609,276.415497 
	C355.511047,276.272858 357.512573,278.112823 357.827271,279.377930 
	C358.761353,283.132629 359.085907,287.038971 359.453857,291.260315 
z"/>
<path fill="#F48AC5" opacity="1.000000" stroke="none" 
	d="
M102.997986,232.007675 
	C102.649017,230.563324 102.300049,229.118958 101.954506,227.007156 
	C101.913101,225.891830 101.868279,225.443954 101.823456,224.996078 
	C101.894096,224.285645 101.964737,223.575211 102.050514,222.507004 
	C102.620132,221.891678 103.174606,221.634125 103.505745,221.480316 
	C103.345238,223.711349 103.184608,225.943985 103.037369,228.849976 
	C103.113182,229.697052 103.175621,229.870789 103.175377,230.368927 
	C103.074463,231.131439 103.036224,231.569565 102.997986,232.007675 
z"/>
<path fill="#0A060A" opacity="1.000000" stroke="none" 
	d="
M103.238052,230.044525 
	C103.175621,229.870789 103.113182,229.697052 103.106308,229.252045 
	C103.621758,228.717926 104.081650,228.455093 104.784119,228.474777 
	C105.681740,229.839325 106.336777,230.921326 106.991814,232.003342 
	C106.993561,232.170029 106.995300,232.336716 106.996841,232.753525 
	C106.253525,233.004532 105.510414,233.005447 104.386833,232.690430 
	C103.750252,231.597855 103.494156,230.821182 103.238052,230.044525 
z"/>
<path fill="#C369AE" opacity="1.000000" stroke="none" 
	d="
M107.030914,231.645370 
	C106.336777,230.921326 105.681740,229.839325 105.037086,228.395767 
	C105.047470,228.034225 105.009575,228.016998 105.249786,227.989838 
	C105.489990,227.962692 105.953201,228.016434 105.953201,228.016434 
	C106.325478,229.106750 106.697746,230.197083 107.030914,231.645370 
z"/>
<path fill="#0A060A" opacity="1.000000" stroke="none" 
	d="
M106.263824,227.969025 
	C105.953201,228.016434 105.489990,227.962692 105.261017,228.006439 
	C105.715126,227.462952 106.398209,226.875702 107.081299,226.288452 
	C106.912354,226.832840 106.743401,227.377213 106.263824,227.969025 
z"/>
<path fill="#0A060A" opacity="1.000000" stroke="none" 
	d="
M108.347351,201.785782 
	C107.851143,201.498901 107.556946,201.047592 107.276695,200.295715 
	C107.710205,200.537216 108.129776,201.079285 108.347351,201.785782 
z"/>
<path fill="#0A060A" opacity="1.000000" stroke="none" 
	d="
M107.180130,207.776062 
	C107.042633,207.054306 107.187187,206.140671 107.654099,205.089569 
	C107.805023,205.829468 107.633606,206.706818 107.180130,207.776062 
z"/>
<path fill="#0A060A" opacity="1.000000" stroke="none" 
	d="
M105.352661,237.554367 
	C104.707207,237.685730 104.256882,237.625900 103.806549,237.566071 
	C104.003380,237.193863 104.200211,236.821655 104.397041,236.449448 
	C104.780624,236.754028 105.164207,237.058609 105.352661,237.554367 
z"/>
<path fill="#08090B" opacity="1.000000" stroke="none" 
	d="
M103.175377,230.368927 
	C103.494156,230.821182 103.750252,231.597855 104.015259,232.696350 
	C103.644272,233.263901 103.264366,233.509628 102.884468,233.755341 
	C102.862755,233.329773 102.841042,232.904190 102.908661,232.243149 
	C103.036224,231.569565 103.074463,231.131439 103.175377,230.368927 
z"/>
<path fill="#0A060A" opacity="1.000000" stroke="none" 
	d="
M101.547302,225.043671 
	C101.868279,225.443954 101.913101,225.891830 101.886971,226.671631 
	C101.345215,226.682236 100.874428,226.360947 100.403633,226.039642 
	C100.692802,225.723526 100.981972,225.407394 101.547302,225.043671 
z"/>
</svg>